<svg width="254" height="254" viewBox="0 0 254 254" fill="none" xmlns="http://www.w3.org/2000/svg">
<path d="M99.8487 25.1795C115.164 10.9769 138.836 10.9769 154.151 25.1795V25.1795C161.155 31.6744 170.254 35.4436 179.799 35.8032V35.8032C200.671 36.5896 217.41 53.3289 218.197 74.2009V74.2009C218.556 83.7456 222.326 92.8453 228.82 99.8487V99.8487C243.023 115.164 243.023 138.836 228.82 154.151V154.151C222.326 161.155 218.556 170.254 218.197 179.799V179.799C217.41 200.671 200.671 217.41 179.799 218.197V218.197C170.254 218.556 161.155 222.326 154.151 228.82V228.82C138.836 243.023 115.164 243.023 99.8487 228.82V228.82C92.8453 222.326 83.7456 218.556 74.2009 218.197V218.197C53.3289 217.41 36.5896 200.671 35.8032 179.799V179.799C35.4436 170.254 31.6744 161.155 25.1795 154.151V154.151C10.9769 138.836 10.9769 115.164 25.1795 99.8487V99.8487C31.6744 92.8453 35.4436 83.7456 35.8032 74.2009V74.2009C36.5896 53.3289 53.3289 36.5896 74.2009 35.8032V35.8032C83.7456 35.4436 92.8453 31.6744 99.8487 25.1795V25.1795Z" fill="url(#paint0_radial_1537_12167)"/>
<circle cx="124" cy="108" r="9" fill="#254267"/>
<circle cx="169" cy="108" r="9" fill="#254267"/>
<path d="M136 127C138.58 130.018 145.993 134.244 155 127" stroke="#254267" stroke-width="5" stroke-linecap="round"/>
<defs>
<radialGradient id="paint0_radial_1537_12167" cx="0" cy="0" r="1" gradientUnits="userSpaceOnUse" gradientTransform="translate(166.53 132.046) rotate(99.4623) scale(168.827 177.212)">
<stop stop-color="#AADFFF"/>
<stop offset="1" stop-color="#0B83CD"/>
</radialGradient>
</defs>
</svg>
